<?xml version="1.0" encoding="UTF-8" standalone="no"?>
<!-- Created with Inkscape (http://www.inkscape.org/) -->

<svg
   width="200mm"
   height="200mm"
   viewBox="0 0 200 200"
   version="1.1"
   id="svg1"
   xml:space="preserve"
   inkscape:export-filename="onix.png"
   inkscape:export-xdpi="96"
   inkscape:export-ydpi="96"
   sodipodi:docname="onix.svg"
   inkscape:version="1.4.4 (dcaf3e7d9e, 2026-05-05)"
   xmlns:inkscape="http://www.inkscape.org/namespaces/inkscape"
   xmlns:sodipodi="http://sodipodi.sourceforge.net/DTD/sodipodi-0.dtd"
   xmlns="http://www.w3.org/2000/svg"
   xmlns:svg="http://www.w3.org/2000/svg"><sodipodi:namedview
     id="namedview1"
     pagecolor="#ffffff"
     bordercolor="#999999"
     borderopacity="1"
     inkscape:showpageshadow="2"
     inkscape:pageopacity="0"
     inkscape:pagecheckerboard="0"
     inkscape:deskcolor="#d1d1d1"
     inkscape:document-units="mm"
     inkscape:zoom="0.9022351"
     inkscape:cx="612.36811"
     inkscape:cy="398.4549"
     inkscape:window-width="3384"
     inkscape:window-height="2088"
     inkscape:window-x="0"
     inkscape:window-y="0"
     inkscape:window-maximized="1"
     inkscape:current-layer="layer1"><inkscape:page
       x="0"
       y="0"
       width="200"
       height="200"
       id="page2"
       margin="0"
       bleed="0" /></sodipodi:namedview><defs
     id="defs1" /><g
     inkscape:label="Layer 1"
     inkscape:groupmode="layer"
     id="layer1"><g
       id="g2"
       transform="translate(1.5875)"><path
         style="fill:#4f6e91;fill-opacity:1;stroke-width:0.551467;stroke-linecap:round;stroke-linejoin:bevel"
         d="m 53.466507,18.604731 18.43324,31.92731 c 12.16999,-3.309734 48.913203,-2.957995 55.863563,1.054805 7.61767,4.398065 29.32043,41.98835 29.32043,50.784484 1e-5,8.02559 -18.0672,40.02163 -27.01855,48.90621 l 18.43324,31.92731 c 13.98624,-12.30519 45.31965,-67.35509 45.31963,-80.8339 1e-5,-14.306238 -35.29795,-75.444098 -47.68752,-82.597221 -11.67299,-6.739405 -75.014303,-7.128838 -92.664033,-1.168998 z"
         id="path2" /><path
         style="fill:#e7590f;fill-opacity:1;stroke-width:0.551467;stroke-linecap:round;stroke-linejoin:bevel"
         d="M 48.801937,21.536661 C 34.815947,33.841127 3.4825667,88.892079 3.4825667,102.37101 c 0,14.30624 35.2979603,75.4441 47.6875303,82.59722 11.67309,6.73948 75.015313,7.12944 92.664283,1.16945 l -18.4335,-31.92776 c -12.16935,3.30991 -48.912833,2.9585 -55.863303,-1.05436 -7.61767,-4.39806 -29.32043,-41.98835 -29.32043,-50.78448 0,-8.0257 18.06718,-40.022576 27.01829,-48.90666 z"
         id="path1" /></g></g></svg>
